<?xml version="1.0" standalone="no"?>
<!DOCTYPE svg PUBLIC "-//W3C//DTD SVG 20010904//EN"
 "http://www.w3.org/TR/2001/REC-SVG-20010904/DTD/svg10.dtd">
<svg version="1.0" xmlns="http://www.w3.org/2000/svg"
 width="478.000000pt" height="478.000000pt" viewBox="0 0 478.000000 478.000000"
 preserveAspectRatio="xMidYMid meet">
<metadata>
Created by potrace 1.11, written by Peter Selinger 2001-2013
</metadata>
<g transform="translate(0.000000,478.000000) scale(0.100000,-0.100000)"
fill="#000000" stroke="none">
<path d="M1390 4125 c0 -8 4 -15 8 -15 5 0 15 -11 22 -25 7 -13 16 -23 19 -20
4 2 13 -10 20 -27 8 -17 22 -33 32 -35 10 -3 16 -9 14 -14 -3 -4 4 -18 16 -30
11 -11 22 -27 23 -34 1 -7 6 -19 12 -26 12 -16 32 -82 38 -124 2 -16 5 -30 6
-30 7 0 6 -36 -1 -41 -5 -3 -6 -11 -2 -17 10 -16 11 -47 2 -47 -4 0 -6 -13 -5
-30 1 -16 -2 -30 -7 -30 -4 0 -5 -5 -2 -10 8 -13 -35 -91 -46 -84 -5 3 -11 -7
-15 -21 -3 -13 -10 -22 -15 -20 -5 3 -11 -6 -15 -20 -3 -14 -11 -25 -17 -25
-6 0 -7 -3 -4 -7 4 -3 -1 -15 -10 -26 -13 -15 -14 -18 -3 -12 11 6 10 3 -3
-12 -9 -11 -14 -23 -10 -26 3 -4 2 -7 -3 -7 -5 0 -11 -15 -13 -32 -4 -43 -9
-73 -11 -73 -1 0 -3 -35 -4 -77 0 -43 1 -78 4 -78 3 0 7 -12 8 -27 1 -15 7
-32 12 -37 6 -6 10 -20 10 -33 0 -13 5 -23 11 -23 5 0 7 -4 4 -10 -3 -5 -1
-10 4 -10 6 0 10 -3 9 -7 -2 -11 35 -73 45 -73 4 0 7 -7 7 -16 0 -9 5 -12 12
-8 7 5 9 1 6 -13 -3 -12 -2 -27 3 -34 4 -7 5 -17 2 -22 -9 -14 -8 -207 1 -207
5 0 3 -7 -4 -15 -10 -12 -10 -15 1 -15 11 0 11 -2 -1 -10 -12 -8 -13 -11 -1
-19 11 -7 11 -9 0 -14 -12 -5 -12 -6 0 -6 11 -1 11 -4 1 -16 -10 -12 -10 -15
1 -15 11 0 11 -2 -1 -10 -12 -8 -13 -11 -1 -19 11 -7 11 -9 0 -14 -12 -5 -12
-6 0 -6 11 -1 11 -4 1 -16 -10 -12 -10 -15 1 -15 11 0 11 -2 -1 -10 -12 -8
-13 -11 -1 -19 11 -7 11 -9 0 -14 -12 -5 -12 -6 0 -6 11 -1 11 -4 1 -16 -10
-12 -10 -15 1 -15 11 0 11 -2 -1 -10 -13 -9 -13 -11 0 -21 12 -8 12 -12 2 -16
-10 -4 -10 -8 -2 -19 10 -10 8 -12 -9 -9 -12 3 -30 7 -42 10 -12 2 -27 9 -35
16 -8 6 -14 9 -14 5 0 -4 -10 0 -23 9 -13 8 -27 12 -30 8 -4 -3 -7 -1 -7 6 0
7 -6 11 -14 8 -8 -3 -22 3 -31 13 -10 11 -22 17 -26 14 -5 -3 -9 -1 -9 4 0 5
-18 15 -40 22 -22 7 -40 16 -40 19 0 7 -58 34 -62 29 -2 -2 -14 7 -28 19 -13
13 -36 29 -52 35 -15 7 -28 16 -28 20 0 5 -7 8 -15 8 -8 0 -15 5 -15 10 0 6
-7 10 -15 10 -8 0 -15 5 -15 10 0 6 -5 10 -10 10 -6 0 -16 5 -23 10 -7 6 -25
22 -42 36 -38 32 -55 41 -80 40 -11 -1 -23 4 -27 9 -5 6 -12 4 -18 -5 -8 -12
-10 -12 -10 -1 0 11 -3 11 -15 1 -9 -7 -18 -10 -22 -7 -3 4 -15 1 -27 -5 -11
-7 -24 -11 -28 -10 -5 1 -8 -2 -8 -6 0 -5 -7 -9 -15 -10 -8 -1 -22 -3 -30 -4
-8 -1 -15 -5 -15 -10 0 -4 -3 -7 -7 -6 -5 1 -18 -3 -29 -10 -12 -6 -24 -8 -28
-5 -3 3 -6 1 -6 -6 0 -7 -4 -10 -8 -7 -4 2 -21 -1 -37 -9 -17 -7 -39 -16 -50
-21 -11 -4 -22 -8 -25 -9 -18 -8 -46 -16 -54 -15 -5 1 -12 -3 -16 -10 -4 -6
-16 -13 -26 -15 -10 -2 -20 -4 -21 -5 -3 -3 -8 -4 -40 -15 -13 -4 -23 -14 -23
-22 0 -8 -3 -12 -7 -10 -5 3 -14 -1 -21 -9 -7 -8 -9 -14 -5 -14 4 0 2 -4 -6
-9 -8 -5 -16 -15 -17 -23 -2 -7 -5 -23 -8 -35 -3 -13 0 -23 6 -23 7 0 6 -6 -2
-15 -10 -12 -10 -15 1 -15 9 0 10 -3 4 -8 -13 -9 -14 -75 0 -84 7 -6 7 -10 0
-15 -6 -5 -11 -17 -11 -28 0 -11 5 -23 11 -27 6 -5 6 -8 0 -8 -5 0 -10 -18
-10 -40 0 -22 3 -40 8 -40 4 0 7 -7 7 -15 0 -12 24 -56 72 -129 7 -11 21 -26
30 -34 9 -9 15 -19 12 -24 -3 -4 0 -8 5 -8 6 0 11 -5 11 -10 0 -6 11 -21 25
-34 14 -13 25 -28 25 -33 0 -16 36 -44 45 -36 4 5 5 3 1 -4 -8 -14 12 -38 152
-179 97 -99 121 -131 87 -118 -8 4 -15 1 -15 -6 0 -6 -4 -9 -8 -6 -4 3 -42 -4
-83 -16 -40 -11 -80 -20 -86 -21 -7 0 -13 -3 -13 -7 0 -4 -8 -7 -17 -7 -28 0
-63 -14 -58 -23 3 -5 -4 -6 -15 -3 -12 3 -20 0 -20 -6 0 -7 -4 -10 -9 -7 -10
6 -61 -16 -61 -26 0 -5 -9 -8 -20 -8 -11 0 -23 -7 -26 -15 -4 -8 -10 -13 -14
-10 -5 3 -11 -4 -15 -15 -4 -11 -11 -18 -16 -15 -5 4 -9 -1 -9 -9 0 -8 -7 -22
-16 -30 -8 -9 -11 -16 -6 -16 6 0 8 -8 5 -18 -2 -11 7 -28 26 -45 17 -15 31
-32 31 -38 0 -5 4 -8 9 -4 5 3 16 -2 24 -10 9 -8 23 -15 31 -15 9 0 16 -5 16
-11 0 -5 5 -7 10 -4 6 3 13 -1 16 -9 3 -9 10 -13 15 -10 6 3 17 0 26 -8 14
-11 16 -11 8 2 -8 13 -7 13 9 0 17 -13 35 -20 64 -22 6 -1 12 -4 12 -8 0 -3 8
-7 17 -8 38 -4 52 -8 67 -21 12 -10 16 -11 16 -1 0 10 3 10 14 1 8 -6 18 -11
22 -9 5 1 18 -3 30 -9 12 -7 26 -8 34 -3 9 5 20 4 28 -3 8 -6 24 -12 36 -13
11 -1 32 -5 46 -8 30 -8 100 -19 118 -19 6 0 12 -4 12 -9 0 -5 8 -4 18 1 14 7
25 6 40 -5 12 -8 22 -10 22 -5 0 7 8 7 24 1 13 -5 27 -6 30 -3 3 4 6 1 6 -7 0
-10 3 -10 14 -1 10 9 16 9 21 1 4 -6 20 -9 36 -6 16 2 29 1 29 -3 0 -4 18 -6
40 -5 22 1 40 -1 40 -5 0 -4 17 -8 38 -9 20 -1 62 -3 92 -4 30 -2 60 -6 67
-11 6 -4 14 -1 16 5 4 9 6 9 6 1 1 -7 14 -10 36 -7 20 2 45 0 55 -6 14 -8 20
-8 20 0 0 6 5 8 12 3 18 -11 52 -10 60 2 5 6 8 5 8 -2 0 -7 7 -10 15 -7 8 4
15 2 15 -3 0 -5 7 -10 15 -10 8 0 15 5 15 10 0 5 6 5 13 -2 10 -8 17 -7 25 1
7 7 12 8 12 2 0 -6 7 -11 15 -11 8 0 15 4 15 9 0 5 6 6 13 1 6 -4 21 -8 32 -8
11 0 25 -4 32 -8 6 -4 14 -3 17 1 3 5 26 6 51 2 25 -4 45 -4 45 0 0 3 24 3 53
-1 28 -3 55 -5 59 -3 4 3 9 0 13 -6 4 -6 12 -7 18 -3 19 11 57 12 57 1 0 -6 7
-5 17 3 12 11 17 11 20 2 3 -9 12 -9 30 -2 19 7 28 6 34 -2 4 -7 12 -8 20 -3
18 11 39 14 39 6 0 -4 21 -7 48 -7 26 0 53 -4 60 -9 7 -5 12 -4 12 4 0 7 7 10
16 6 8 -3 25 -1 37 5 16 9 22 9 25 0 2 -6 9 -8 15 -4 20 12 41 13 48 1 6 -9
11 -8 22 1 10 8 17 9 22 1 4 -7 13 -7 28 1 16 9 22 9 25 0 2 -6 9 -8 15 -4 19
12 47 14 47 3 0 -5 7 -7 15 -4 8 4 13 9 11 13 -5 7 123 5 131 -2 3 -3 16 -2
29 3 16 6 24 6 24 -1 0 -6 5 -7 12 -3 6 4 27 9 46 10 18 1 36 5 39 8 3 3 14 1
24 -5 11 -5 19 -6 19 -2 0 4 14 8 30 8 17 0 30 -4 30 -9 0 -5 6 -4 13 2 16 13
77 21 83 10 3 -5 10 -5 16 -2 6 4 31 8 57 9 25 2 55 6 66 10 16 6 17 5 5 -4
-8 -6 -10 -11 -4 -11 6 0 14 3 18 7 7 7 59 13 138 15 21 1 35 4 33 9 -6 9 15
6 31 -4 6 -3 14 -3 18 0 7 8 22 11 78 17 20 2 41 7 47 10 6 4 11 2 11 -5 0 -8
4 -8 13 -2 6 6 20 9 29 8 10 -2 20 1 23 5 3 5 12 7 20 4 7 -3 23 -1 34 6 16 8
21 8 21 -1 0 -8 4 -8 13 -2 6 6 19 10 27 10 8 1 29 4 45 8 17 4 44 8 60 10 17
1 42 7 56 13 19 8 30 7 39 -1 10 -9 11 -9 6 1 -4 7 -2 12 6 13 7 0 24 3 38 5
14 3 33 5 43 6 9 1 17 6 17 11 0 4 5 5 10 2 6 -3 16 -3 23 2 12 7 18 9 47 15
8 2 21 7 28 12 7 4 16 5 19 2 3 -3 15 0 27 6 11 7 23 13 26 13 3 0 15 6 28 13
12 7 22 10 22 7 0 -8 84 37 88 48 2 4 10 7 18 7 9 0 12 5 9 10 -3 6 0 10 8 10
22 0 56 71 46 98 -4 12 -13 22 -19 22 -5 0 -10 5 -10 10 0 14 -51 59 -67 60
-7 0 -13 5 -13 11 0 5 -4 8 -9 4 -5 -3 -17 2 -25 11 -9 8 -16 12 -16 8 0 -3
-7 -1 -15 6 -8 7 -15 9 -15 5 0 -4 -6 -2 -13 4 -8 6 -17 8 -20 4 -4 -3 -7 -1
-7 5 0 7 -3 11 -7 11 -5 -1 -10 0 -13 1 -3 1 -18 4 -35 6 -16 3 -35 10 -42 16
-8 6 -16 8 -20 4 -3 -3 -17 1 -31 10 -15 10 -21 11 -17 3 6 -8 4 -10 -6 -3 -8
5 -25 10 -39 12 -13 2 -27 7 -30 10 -6 9 -21 9 -35 0 -6 -4 -11 2 -12 13 -1
11 2 17 8 14 5 -4 9 1 9 10 0 9 5 13 10 10 6 -3 10 -1 10 6 0 15 47 59 54 51
3 -3 6 2 6 12 0 9 5 14 10 11 6 -3 10 -2 10 3 0 6 24 35 54 66 30 31 53 56 51
56 -2 0 6 11 18 24 12 13 31 35 42 50 11 15 30 38 43 51 12 13 22 28 22 32 0
4 10 20 23 35 39 47 62 81 60 90 -2 4 2 8 8 8 5 0 8 4 5 9 -4 5 -2 11 3 13 20
7 47 77 46 119 -1 24 3 47 9 51 8 5 7 8 0 8 -7 0 -11 14 -8 35 2 24 -1 33 -8
29 -7 -5 -8 -2 -2 7 11 19 13 121 1 136 -5 7 -6 16 -3 21 3 5 -9 24 -27 43
-33 35 -62 52 -127 74 -3 1 -18 7 -33 13 -16 7 -32 10 -37 7 -4 -3 -11 2 -14
11 -4 9 -9 14 -12 11 -4 -3 -30 5 -60 18 -30 13 -54 21 -54 18 0 -3 -6 0 -13
6 -8 6 -17 8 -20 4 -4 -3 -7 -1 -7 5 0 7 -6 12 -14 12 -8 0 -36 10 -63 22 -26
11 -64 22 -84 23 -20 1 -41 5 -46 8 -6 4 -13 3 -17 0 -4 -4 -13 -8 -20 -9 -12
-2 -93 -51 -106 -64 -17 -17 -80 -60 -80 -54 0 4 -9 -3 -19 -15 -11 -12 -23
-22 -28 -23 -14 0 -63 -32 -63 -41 0 -4 -4 -5 -10 -2 -5 3 -10 2 -10 -4 0 -6
-7 -8 -15 -5 -8 4 -15 2 -15 -4 0 -9 -71 -48 -79 -43 -2 2 -7 -2 -11 -9 -4 -6
-14 -12 -22 -14 -9 -1 -23 -8 -32 -15 -9 -7 -16 -10 -16 -6 0 4 -7 2 -15 -5
-8 -7 -15 -10 -15 -6 0 3 -9 -2 -20 -11 -10 -9 -26 -18 -35 -19 -9 -1 -24 -6
-33 -10 -9 -4 -20 -8 -24 -8 -3 -1 -9 -4 -13 -8 -19 -19 -31 6 -29 65 1 34 -3
67 -8 74 -5 6 -5 14 0 17 11 6 9 66 -2 85 -6 10 -5 12 2 7 13 -8 12 20 -1 40
-3 6 -3 14 1 18 12 13 11 86 -2 86 -7 0 -7 3 -1 8 14 10 16 82 1 82 -7 0 -6 3
2 9 17 11 17 21 0 32 -7 5 -8 9 -2 9 6 0 10 18 9 45 -1 25 1 45 5 45 12 0 81
110 75 120 -4 6 -1 10 5 10 6 0 9 4 6 9 -4 5 -2 11 3 13 6 1 12 17 15 33 2 17
5 30 7 30 4 0 11 93 10 145 -2 83 -7 114 -20 118 -6 2 -9 8 -6 12 6 10 -35
103 -47 108 -4 2 -8 9 -8 16 0 7 -8 21 -19 32 -10 11 -24 30 -30 42 -7 13 -16
20 -22 17 -5 -4 -9 8 -9 24 0 17 -4 31 -9 31 -6 0 -8 9 -6 20 2 11 0 20 -5 20
-6 0 -6 10 0 25 6 16 6 26 -1 31 -8 4 -7 9 2 15 11 7 11 9 -1 9 -13 0 -13 1 0
10 13 9 13 10 0 10 -13 0 -13 1 0 10 10 6 11 10 3 10 -9 0 -10 7 -3 25 7 18 6
25 -3 25 -9 0 -9 2 1 9 7 4 14 18 15 29 1 12 4 22 7 22 3 0 6 10 7 22 1 11 7
24 13 28 7 4 11 9 10 11 -2 6 13 44 20 49 4 3 19 24 34 48 16 25 31 40 38 36
6 -4 8 -3 4 4 -3 6 -2 13 4 17 6 4 8 11 5 16 -3 5 0 6 7 4 12 -5 55 51 46 60
-7 6 -48 -15 -48 -25 0 -6 -4 -9 -8 -6 -5 3 -31 -13 -59 -34 -28 -21 -54 -36
-57 -33 -3 4 -6 2 -6 -4 0 -6 -12 -18 -26 -28 -18 -12 -24 -13 -19 -4 3 8 -1
5 -10 -6 -9 -11 -17 -18 -18 -17 -4 7 -57 -21 -57 -30 0 -5 -4 -7 -9 -4 -5 3
-21 -4 -37 -16 -15 -13 -24 -17 -20 -9 6 9 1 8 -16 -3 -14 -9 -28 -13 -31 -9
-4 3 -7 1 -7 -5 0 -7 -9 -12 -20 -12 -11 0 -20 -4 -20 -9 0 -8 -53 -25 -77
-24 -7 0 -13 -3 -13 -8 0 -5 -3 -8 -7 -7 -5 0 -16 -2 -25 -5 -10 -4 -26 -10
-35 -14 -10 -3 -26 -7 -35 -8 -10 -2 -19 -3 -20 -5 -7 -5 -96 -23 -120 -24
-10 0 -18 -3 -18 -7 0 -6 -60 -11 -114 -10 -11 0 -27 -4 -38 -10 -13 -7 -18
-6 -18 3 0 8 -3 9 -8 3 -8 -11 -52 -16 -52 -6 0 4 -21 7 -47 7 -82 2 -133 8
-133 15 0 4 -12 6 -27 4 -16 -2 -35 1 -44 6 -9 4 -27 10 -40 12 -14 3 -56 14
-94 26 -39 11 -74 20 -79 20 -5 0 -12 4 -15 10 -4 6 -16 12 -28 14 -12 1 -29
9 -39 17 -15 13 -17 13 -9 1 5 -8 -7 -4 -26 9 -19 14 -35 23 -37 22 -4 -5
-116 50 -123 61 -3 5 -10 9 -15 9 -20 1 -34 11 -28 19 3 5 2 9 -3 8 -16 -2
-53 13 -53 23 0 5 -4 7 -8 4 -5 -3 -21 7 -37 22 -16 15 -33 27 -38 27 -4 0
-12 7 -17 15 -5 8 -10 11 -10 7 0 -5 -7 -1 -16 7 -20 20 -34 20 -34 1z"/>
</g>
</svg>
